<?xml version="1.0" encoding="UTF-8"?>
<svg xmlns="http://www.w3.org/2000/svg" viewBox="0 0 150 150" aria-label="Fellow Coffee">
  <defs>
    <style>
      .cls-1 { fill: none; }
    </style>
  </defs>
  <path class="cls-1" d="M0,0H150V150H0V0Z"/>
  <path d="M101.42,115.42c-.41,0-.81,0-1.22,.41l-24.8,9.35-24.8-9.35c-2.03-.81-4.07,.41-4.88,2.03,0,.41-.41,.81-.41,1.22v19.51c-.16,2.31,2.84,5.18,5.28,3.66l24.8-9.35,24.8,9.35c2.03,.81,4.07-.41,4.88-2.03,0-.41,.41-.81,.41-1.22v-19.51c-.41-2.03-2.03-4.07-4.07-4.07Z"/>
  <path d="M75,8.92h0c-27.24,0-49.19,21.95-49.19,49.19s21.95,49.19,49.19,49.19,49.19-21.95,49.19-49.19h0c0-27.24-21.95-49.19-49.19-49.19Zm0,83.74c-18.7,0-33.74-14.63-33.74-34.55s15.04-34.55,33.74-34.55,33.74,14.63,33.74,34.55c.41,19.51-14.63,34.55-33.74,34.55Z"/>
</svg>
